<svg width="14" height="14" viewBox="0 0 14 14" fill="none" xmlns="http://www.w3.org/2000/svg">
<path d="M3.29695 0.332031C1.65549 0.332031 0.333984 1.65354 0.333984 3.29499V13.6654H10.7044C12.3458 13.6654 13.6673 12.3439 13.6673 10.7024V3.29499C13.6673 1.65354 12.3458 0.332031 10.7044 0.332031H3.29695ZM7.00065 2.55425C7.39356 2.55425 7.77044 2.7103 8.04822 2.98817C8.3261 3.26595 8.48213 3.64283 8.48213 4.03574C8.48213 4.42865 8.32609 4.80552 8.04822 5.0833C7.77044 5.36119 7.39356 5.51722 7.00065 5.51722C6.60774 5.51722 6.23086 5.36117 5.95309 5.0833C5.6752 4.80552 5.51917 4.42865 5.51917 4.03574C5.51917 3.64283 5.67521 3.26595 5.95309 2.98817C6.23086 2.71029 6.60774 2.55425 7.00065 2.55425ZM6.25991 6.25796H7.74139C8.15176 6.25796 8.48213 6.58833 8.48213 6.9987V10.7024C8.48213 11.1128 8.15176 11.4431 7.74139 11.4431H6.25991C5.84954 11.4431 5.51917 11.1128 5.51917 10.7024V6.9987C5.51917 6.58833 5.84954 6.25796 6.25991 6.25796Z" fill="#4D1C8C"/>
</svg>
