<svg width="56" height="56" viewBox="0 0 56 56" fill="none" xmlns="http://www.w3.org/2000/svg">
<circle cx="28" cy="28" r="28" fill="#F9F5FA"/>
<path fill-rule="evenodd" clip-rule="evenodd" d="M32.0743 23.6265V18.7078C33.1225 18.53 33.9262 17.6188 33.9262 16.5188V13.5557C33.9262 12.3299 32.93 11.3334 31.7038 11.3334H23.5557C22.3298 11.3334 21.3333 12.3295 21.3333 13.5557V16.5188C21.3333 17.6188 22.137 18.5297 23.1852 18.7078L23.1854 40.2223C23.1854 42.674 25.1781 44.6667 27.6298 44.6667C30.0815 44.6667 32.0742 42.674 32.0742 40.2223V39.7816L32.0743 23.6265ZM31.7038 12.8153H30.2225V17.2596H31.7038C32.1112 17.2596 32.4445 16.9264 32.4445 16.519V13.5559C32.4445 13.1485 32.1112 12.8153 31.7038 12.8153ZM29.8706 25.067C28.0707 23.9336 25.7853 23.456 24.6669 23.2782V18.7413L30.5929 18.7413L30.5929 25.5L30.5927 38.9192L30.5927 40.2229C30.5927 41.8561 29.263 43.1859 27.6297 43.1859C25.9964 43.1859 24.6667 41.8562 24.6667 40.2229V24.7784C25.8259 24.9784 27.5 25.4116 28.8297 26.1709C27.615 27.6932 26.889 29.6153 26.889 31.7043C26.889 34.6709 28.352 37.3006 30.5927 38.9192L30.5929 25.5L29.8706 25.067ZM28.7411 12.8153H26.5187V17.2596H28.7411V12.8153ZM22.815 16.5192C22.815 16.9266 23.1483 17.2599 23.5557 17.2599H25.0371V12.8155H23.5557C23.1483 12.8155 22.815 13.1488 22.815 13.5562V16.5192Z" fill="#9E62B3"/>
<path fill-rule="evenodd" clip-rule="evenodd" d="M27.6297 43.1859C29.263 43.1859 30.5927 41.8561 30.5927 40.2229L30.5927 38.9192C28.352 37.3006 26.889 34.6709 26.889 31.7043C26.889 29.6153 27.615 27.6932 28.8297 26.1709C27.5 25.4116 25.8259 24.9784 24.6667 24.7784V40.2229C24.6667 41.8562 25.9964 43.1859 27.6297 43.1859Z" fill="#9E62B3"/>
</svg>
