<svg width="20" height="20" viewBox="0 0 20 20" fill="none" xmlns="http://www.w3.org/2000/svg">
<path d="M18.9979 11.3318C19.2631 11.3318 19.5175 11.2264 19.705 11.039C19.8924 10.8515 19.9978 10.597 19.9978 10.3319C19.9978 10.0668 19.8925 9.8123 19.705 9.62486C19.5175 9.43741 19.263 9.33203 18.9979 9.33203C18.7328 9.33203 18.4783 9.43738 18.2909 9.62486C18.1034 9.81234 17.998 10.0668 17.998 10.3319C17.9983 10.5971 18.1038 10.8512 18.2912 11.0387C18.4787 11.226 18.7328 11.3315 18.998 11.3318L18.9979 11.3318ZM18.9979 9.99859C19.1327 9.99859 19.2543 10.0798 19.3058 10.2044C19.3574 10.3289 19.329 10.4722 19.2336 10.5676C19.1382 10.663 18.9949 10.6914 18.8704 10.6397C18.7459 10.5883 18.6646 10.4667 18.6646 10.3319C18.6648 10.1478 18.8139 9.99874 18.9979 9.99859Z" fill="url(#paint0_linear_7052_39661)"/>
<path d="M16.3314 9.33178C16.5966 9.33178 16.851 9.22643 17.0385 9.03895C17.2259 8.85147 17.3313 8.59702 17.3313 8.3319C17.3313 8.06679 17.2259 7.8123 17.0385 7.62486C16.851 7.43741 16.5965 7.33203 16.3314 7.33203C16.0663 7.33203 15.8118 7.43738 15.6244 7.62486C15.4369 7.81234 15.3315 8.06679 15.3315 8.3319C15.3318 8.59705 15.4373 8.8512 15.6247 9.03869C15.8121 9.22602 16.0663 9.33151 16.3314 9.33181L16.3314 9.33178ZM16.3314 7.99859C16.4662 7.99859 16.5878 8.07983 16.6393 8.20437C16.6909 8.32891 16.6625 8.47219 16.5671 8.56757C16.4717 8.66295 16.3284 8.69137 16.2039 8.63974C16.0794 8.58825 15.9981 8.46669 15.9981 8.33189C15.9983 8.14783 16.1474 7.99874 16.3314 7.99859Z" fill="url(#paint1_linear_7052_39661)"/>
<path d="M16.6646 10.9993C16.6646 11.1834 16.5154 11.3326 16.3313 11.3326C16.1473 11.3326 15.998 11.1834 15.998 10.9993C15.998 10.8153 16.1473 10.666 16.3313 10.666C16.5154 10.666 16.6646 10.8153 16.6646 10.9993Z" fill="url(#paint2_linear_7052_39661)"/>
<path d="M19.3311 7.66533C19.3311 7.84939 19.1819 7.99863 18.9978 7.99863C18.8138 7.99863 18.6646 7.84939 18.6646 7.66533C18.6646 7.48127 18.8138 7.33203 18.9978 7.33203C19.1819 7.33203 19.3311 7.48127 19.3311 7.66533Z" fill="url(#paint3_linear_7052_39661)"/>
<path d="M19.2954 15.9983H19.3312C19.4196 15.9983 19.5044 15.9631 19.5669 15.9006C19.6294 15.8382 19.6645 15.7533 19.6645 15.665V13.6652C19.6645 13.5768 19.6294 13.492 19.5669 13.4295C19.5044 13.367 19.4196 13.3319 19.3312 13.3319H18.6646V12.6653H18.9979C19.182 12.6653 19.3312 12.516 19.3312 12.332C19.3312 12.1479 19.182 11.9987 18.9979 11.9987H16.3316C16.1475 11.9987 15.9983 12.1479 15.9983 12.332C15.9983 12.516 16.1475 12.6653 16.3316 12.6653H16.6649V13.5874C16.54 13.6991 16.4451 13.8404 16.3888 13.9985H14.5204L12.6653 10.9065V8.999C12.6648 8.61497 12.532 8.24282 12.2891 7.9454C12.0463 7.64781 11.7082 7.44321 11.3321 7.36584V4.33283C11.3321 2.78477 10.5063 1.35445 9.16565 0.580395C7.82504 -0.193465 6.1734 -0.193465 4.83278 0.580395C3.49216 1.35441 2.66635 2.78477 2.66635 4.33283V7.36584C2.2902 7.44321 1.95214 7.64781 1.70931 7.9454C1.46648 8.24284 1.3336 8.61497 1.33316 8.999V10.9732L0.00385003 19.6138C-0.0108806 19.7099 0.0170927 19.8077 0.0803294 19.8815C0.143717 19.9553 0.236115 19.9977 0.333278 19.9977H10.9988C11.0872 19.9977 11.172 19.9626 11.2345 19.9001C11.297 19.8376 11.3321 19.7528 11.3321 19.6644V15.7437L12.034 17.1472C12.0904 17.2602 12.2058 17.3314 12.332 17.3314H15.356C15.2393 18.1345 15.5482 18.9405 16.1718 19.4598C16.7954 19.9791 17.6439 20.1369 18.4126 19.8769C19.1813 19.6168 19.7596 18.9759 19.9397 18.1846C20.1197 17.3933 19.8757 16.5654 19.2954 15.9983H19.2954ZM18.9979 15.3317H17.3315C17.1474 15.3315 16.9983 15.1824 16.9982 14.9984V14.3318C16.9983 14.1477 17.1474 13.9986 17.3315 13.9985H18.9979V15.3317ZM17.3315 12.6653H17.9981V13.3319H17.3315V12.6653ZM11.9987 8.999V10.6655H8.33241V9.68525C9.2551 9.22637 9.87823 8.32677 9.98374 7.30174C10.231 7.25368 10.4642 7.14997 10.6655 6.99835V7.66582C10.6655 7.7542 10.7006 7.83902 10.7631 7.90151C10.8256 7.964 10.9104 7.99912 10.9988 7.99912C11.2639 7.99941 11.5181 8.10491 11.7054 8.29239C11.8929 8.47972 11.9984 8.73387 11.9987 8.99902L11.9987 8.999ZM5.19941 11.732L4.66614 11.3321H5.79341L6.66592 13.0773V14.6651L5.33273 12.8874V11.9987C5.33273 11.8938 5.28333 11.795 5.19941 11.732ZM4.66614 4.66613H9.33231V6.38351L7.85391 6.62991L7.63072 6.18352H7.63057C7.57418 6.07059 7.45872 5.99932 7.33254 5.99932H6.66594C6.53977 5.99932 6.4243 6.07059 6.36776 6.18352L6.14457 6.62991L4.66618 6.38351L4.66614 4.66613ZM9.9989 4.72342C10.2603 4.81597 10.4716 5.01297 10.5822 5.26724C10.6927 5.52152 10.6927 5.8105 10.5822 6.0648C10.4716 6.31909 10.2603 6.5161 9.9989 6.60863V4.72342ZM5.74488 3.99953L8.21844 2.76275L9.04304 3.99953H5.74488ZM3.99969 6.60863C3.73826 6.51608 3.52698 6.31907 3.41644 6.0648C3.3059 5.81052 3.30589 5.52154 3.41644 5.26724C3.52699 5.01295 3.73828 4.81594 3.99969 4.72342V6.60863ZM6.278 7.32805C6.42233 7.35201 6.56547 7.2791 6.63079 7.14831L6.87199 6.66592H7.12657L7.36777 7.14831C7.43339 7.2791 7.57638 7.35201 7.7207 7.32805L9.33093 7.05963C9.3101 7.87859 8.86119 8.62659 8.14832 9.03009C7.43544 9.43362 6.56323 9.43362 5.85035 9.03009C5.13747 8.62655 4.68857 7.87859 4.66773 7.05963L6.278 7.32805ZM6.99937 9.99889C7.22375 9.99874 7.44725 9.9733 7.66597 9.9233V10.9201L6.99937 12.2533L6.33278 10.9201V9.9233C6.55151 9.9733 6.77498 9.99874 6.99937 9.99889ZM7.33267 13.0773L8.20519 11.3321H9.33246L8.79918 11.732C8.71526 11.795 8.66586 11.8938 8.66586 11.9987V12.8874L7.33267 14.6651V13.0773ZM6.99937 0.666401C7.97146 0.667443 8.90332 1.05417 9.5906 1.74145C10.2779 2.42873 10.6646 3.36063 10.6657 4.33268V4.33357C10.4282 4.15457 10.1468 4.04283 9.85115 4.00994L8.60991 2.14793C8.51661 2.00821 8.33389 1.95956 8.18348 2.03485L4.25018 4.00161V4.00146C3.91807 4.01768 3.59863 4.13344 3.33317 4.33357V4.33268C3.33422 3.36059 3.72094 2.42873 4.40822 1.74145C5.0955 1.05417 6.0274 0.667468 6.99945 0.666401L6.99937 0.666401ZM2.9998 7.99895C3.08818 7.99895 3.173 7.96384 3.23549 7.90134C3.29798 7.83885 3.3331 7.75404 3.3331 7.66566V6.99818C3.53442 7.14981 3.76757 7.25351 4.01485 7.30157C4.12035 8.32661 4.7435 9.2262 5.66618 9.68509V10.6653H1.99991V8.99884C2.00021 8.73369 2.1057 8.47954 2.29318 8.29221C2.48051 8.10473 2.73466 7.99924 2.99981 7.99894L2.9998 7.99895ZM1.9526 11.3319H3.5554L4.66629 12.1652V12.9984C4.66629 13.0706 4.68965 13.1407 4.73295 13.1984L6.66608 15.7758V19.3311H3.3331V14.3316C3.3331 14.1476 3.18386 13.9983 2.9998 13.9983C2.81574 13.9983 2.6665 14.1476 2.6665 14.3316V19.3311H0.72191L1.9526 11.3319ZM12.5381 16.6647L11.297 14.1825C11.228 14.0443 11.0728 13.9717 10.9224 14.0072C10.772 14.0428 10.6657 14.177 10.6657 14.3316V19.3311H7.33274V15.7758L9.26587 13.1984C9.30917 13.1407 9.33253 13.0706 9.33253 12.9984V12.1652L10.4436 11.3319H12.1434L14.046 14.503C14.1063 14.6036 14.2149 14.6649 14.332 14.6649H16.3318V14.9982C16.3316 15.223 16.4077 15.4412 16.5474 15.6172C16.1157 15.8541 15.7695 16.2204 15.5575 16.6647H12.5381ZM17.6648 19.3311C17.2229 19.3311 16.799 19.1555 16.4864 18.8431C16.1739 18.5304 15.9983 18.1065 15.9983 17.6646C15.9983 17.2227 16.1739 16.7988 16.4864 16.4861C16.799 16.1737 17.2229 15.9981 17.6648 15.9981C18.1068 15.9981 18.5306 16.1737 18.8433 16.4861C19.1558 16.7987 19.3313 17.2227 19.3313 17.6646C19.3309 18.1064 19.1551 18.53 18.8427 18.8424C18.5302 19.1549 18.1066 19.3306 17.6648 19.3311Z" fill="url(#paint4_linear_7052_39661)"/>
<defs>
<linearGradient id="paint0_linear_7052_39661" x1="17.7809" y1="11.3318" x2="20.262" y2="11.1505" gradientUnits="userSpaceOnUse">
<stop stop-color="#6B4DE0"/>
<stop offset="0.544792" stop-color="#9C42E3"/>
<stop offset="1" stop-color="#C339E5"/>
</linearGradient>
<linearGradient id="paint1_linear_7052_39661" x1="15.1144" y1="9.33181" x2="17.5955" y2="9.15051" gradientUnits="userSpaceOnUse">
<stop stop-color="#6B4DE0"/>
<stop offset="0.544792" stop-color="#9C42E3"/>
<stop offset="1" stop-color="#C339E5"/>
</linearGradient>
<linearGradient id="paint2_linear_7052_39661" x1="15.9257" y1="11.3326" x2="16.7527" y2="11.2722" gradientUnits="userSpaceOnUse">
<stop stop-color="#6B4DE0"/>
<stop offset="0.544792" stop-color="#9C42E3"/>
<stop offset="1" stop-color="#C339E5"/>
</linearGradient>
<linearGradient id="paint3_linear_7052_39661" x1="18.5922" y1="7.99863" x2="19.4192" y2="7.93819" gradientUnits="userSpaceOnUse">
<stop stop-color="#6B4DE0"/>
<stop offset="0.544792" stop-color="#9C42E3"/>
<stop offset="1" stop-color="#C339E5"/>
</linearGradient>
<linearGradient id="paint4_linear_7052_39661" x1="-2.17149" y1="20" x2="22.6398" y2="18.1871" gradientUnits="userSpaceOnUse">
<stop stop-color="#6B4DE0"/>
<stop offset="0.544792" stop-color="#9C42E3"/>
<stop offset="1" stop-color="#C339E5"/>
</linearGradient>
</defs>
</svg>
