<svg width="18" height="18" viewBox="0 0 18 18" fill="none" xmlns="http://www.w3.org/2000/svg">
<path fill-rule="evenodd" clip-rule="evenodd" d="M10.3889 2.05518H4.83332C4.06625 2.05518 3.44443 2.677 3.44443 3.44406V14.5552C3.44443 15.3222 4.06625 15.9441 4.83332 15.9441H13.1666C13.9337 15.9441 14.5555 15.3222 14.5555 14.5552V6.22184L10.3889 2.05518Z" stroke="url(#paint0_linear_7263_4942)" stroke-width="1.5" stroke-linecap="round" stroke-linejoin="round"/>
<path d="M10.3889 2.05518V6.22184H14.5556" stroke="url(#paint1_linear_7263_4942)" stroke-width="1.5" stroke-linecap="round" stroke-linejoin="round"/>
<path d="M11.7778 9.69434H6.2222" stroke="url(#paint2_linear_7263_4942)" stroke-width="1.5" stroke-linecap="round" stroke-linejoin="round"/>
<path d="M11.7778 12.4722H6.2222" stroke="url(#paint3_linear_7263_4942)" stroke-width="1.5" stroke-linecap="round" stroke-linejoin="round"/>
<path d="M7.61109 6.9165H6.91664H6.2222" stroke="url(#paint4_linear_7263_4942)" stroke-width="1.5" stroke-linecap="round" stroke-linejoin="round"/>
<defs>
<linearGradient id="paint0_linear_7263_4942" x1="2.23792" y1="15.9441" x2="16.0498" y2="15.1366" gradientUnits="userSpaceOnUse">
<stop stop-color="#6B4DE0"/>
<stop offset="0.544792" stop-color="#9C42E3"/>
<stop offset="1" stop-color="#C339E5"/>
</linearGradient>
<linearGradient id="paint1_linear_7263_4942" x1="9.93644" y1="6.22184" x2="15.106" y2="5.84408" gradientUnits="userSpaceOnUse">
<stop stop-color="#6B4DE0"/>
<stop offset="0.544792" stop-color="#9C42E3"/>
<stop offset="1" stop-color="#C339E5"/>
</linearGradient>
<linearGradient id="paint2_linear_7263_4942" x1="5.61894" y1="10.3888" x2="10.7835" y2="7.3696" gradientUnits="userSpaceOnUse">
<stop stop-color="#6B4DE0"/>
<stop offset="0.544792" stop-color="#9C42E3"/>
<stop offset="1" stop-color="#C339E5"/>
</linearGradient>
<linearGradient id="paint3_linear_7263_4942" x1="5.61894" y1="13.1666" x2="10.7835" y2="10.1474" gradientUnits="userSpaceOnUse">
<stop stop-color="#6B4DE0"/>
<stop offset="0.544792" stop-color="#9C42E3"/>
<stop offset="1" stop-color="#C339E5"/>
</linearGradient>
<linearGradient id="paint4_linear_7263_4942" x1="6.07138" y1="7.61095" x2="7.76754" y2="7.36306" gradientUnits="userSpaceOnUse">
<stop stop-color="#6B4DE0"/>
<stop offset="0.544792" stop-color="#9C42E3"/>
<stop offset="1" stop-color="#C339E5"/>
</linearGradient>
</defs>
</svg>
