<svg width="18" height="18" viewBox="0 0 18 18" fill="none" xmlns="http://www.w3.org/2000/svg">
<path d="M16.5359 7.08055L15.9208 6.36008C15.7451 6.14926 15.6397 5.90325 15.6221 5.63961L15.5519 4.6908C15.4465 3.33775 14.3921 2.2835 13.0392 2.17811L12.0904 2.10787C11.8269 2.09034 11.5632 1.98481 11.3699 1.80917L10.6494 1.1941C9.61274 0.31551 8.11908 0.31551 7.08238 1.1941L6.36191 1.80917C6.15109 1.98494 5.90508 2.09034 5.64144 2.10787L4.69263 2.17811C3.33958 2.28352 2.28534 3.33787 2.17994 4.6908L2.1097 5.63961C2.09218 5.90313 1.98664 6.16679 1.811 6.36008L1.19593 7.08055C0.317341 8.11725 0.317341 9.61091 1.19593 10.6476L1.811 11.3681C1.98677 11.5789 2.09218 11.8249 2.1097 12.0886L2.17994 13.0374C2.28535 14.3904 3.3397 15.4447 4.69263 15.5501L5.64144 15.6203C5.90497 15.6378 6.16862 15.7434 6.36191 15.919L7.08238 16.5341C7.5919 16.9734 8.22448 17.2018 8.8571 17.2018C9.48971 17.2018 10.1223 16.9734 10.6318 16.5341L11.3523 15.919C11.5631 15.7432 11.8091 15.6378 12.0728 15.6203L13.0216 15.5501C14.3746 15.4446 15.4289 14.3903 15.5343 13.0374L15.6045 12.0886C15.622 11.825 15.7276 11.5614 15.9032 11.3681L16.5183 10.6476C17.4322 9.61079 17.4322 8.09974 16.5359 7.08055H16.5359ZM15.4113 9.68114L14.7962 10.4016C14.4097 10.8409 14.1988 11.3856 14.1461 11.9655L14.0759 12.9143C14.0232 13.5469 13.5312 14.0213 12.9161 14.0741L11.9673 14.1443C11.3874 14.197 10.8427 14.4078 10.4034 14.7944L9.68295 15.4095C9.20848 15.8136 8.50565 15.8136 8.03118 15.4095L7.31071 14.7944C6.87141 14.4078 6.32672 14.197 5.74682 14.1443L4.79801 14.0741C4.16543 14.0214 3.69096 13.5294 3.63825 12.9143L3.56801 11.9655C3.51531 11.3856 3.30449 10.8409 2.91789 10.4016L2.30282 9.68114C1.8987 9.20667 1.8987 8.50383 2.30282 8.02936L2.91789 7.30889C3.30447 6.8696 3.5153 6.32491 3.56801 5.74501L3.63825 4.7962C3.69095 4.16362 4.18294 3.68915 4.79801 3.63643L5.74682 3.5662C6.32669 3.51349 6.87141 3.30267 7.31071 2.91608L8.03118 2.301C8.27718 2.09018 8.55836 2.0023 8.85705 2.0023C9.15574 2.0023 9.43692 2.10771 9.68292 2.301L10.4034 2.91608C10.8427 3.30265 11.3874 3.51348 11.9673 3.5662L12.9161 3.63643C13.5487 3.68914 14.0231 4.18113 14.0758 4.7962L14.1461 5.74501C14.1988 6.32487 14.4096 6.8696 14.7962 7.30889L15.4113 8.02936C15.833 8.50383 15.833 9.20667 15.4113 9.68114H15.4113Z" fill="url(#paint0_linear_7263_2147)"/>
<path d="M11.9497 5.76264C11.6685 5.48146 11.1942 5.48146 10.913 5.76264L5.76447 10.9112C5.48329 11.1923 5.48329 11.6667 5.76447 11.9479C5.90506 12.0884 6.09837 12.1587 6.29165 12.1587C6.48495 12.1587 6.66072 12.0884 6.81884 11.9479L11.9674 6.79934C12.2484 6.51816 12.2484 6.04369 11.9497 5.76264H11.9497Z" fill="url(#paint1_linear_7263_2147)"/>
<path d="M7.71488 6.46543C7.71488 7.15452 7.15632 7.71308 6.46723 7.71308C5.77826 7.71308 5.21957 7.15452 5.21957 6.46543C5.21957 5.77646 5.77826 5.21777 6.46723 5.21777C7.15632 5.21777 7.71488 5.77646 7.71488 6.46543Z" fill="url(#paint2_linear_7263_2147)"/>
<path d="M12.4944 11.2452C12.4944 11.9342 11.9357 12.4929 11.2467 12.4929C10.5576 12.4929 9.99908 11.9342 9.99908 11.2452C9.99908 10.5561 10.5576 9.99756 11.2467 9.99756C11.9357 9.99756 12.4944 10.5561 12.4944 11.2452Z" fill="url(#paint3_linear_7263_2147)"/>
<defs>
<linearGradient id="paint0_linear_7263_2147" x1="-1.27302" y1="17.2018" x2="19.4079" y2="15.6904" gradientUnits="userSpaceOnUse">
<stop stop-color="#6B4DE0"/>
<stop offset="0.544792" stop-color="#9C42E3"/>
<stop offset="1" stop-color="#C339E5"/>
</linearGradient>
<linearGradient id="paint1_linear_7263_2147" x1="4.83449" y1="12.1587" x2="13.0506" y2="11.5569" gradientUnits="userSpaceOnUse">
<stop stop-color="#6B4DE0"/>
<stop offset="0.544792" stop-color="#9C42E3"/>
<stop offset="1" stop-color="#C339E5"/>
</linearGradient>
<linearGradient id="paint2_linear_7263_2147" x1="4.94862" y1="7.71308" x2="8.04453" y2="7.48685" gradientUnits="userSpaceOnUse">
<stop stop-color="#6B4DE0"/>
<stop offset="0.544792" stop-color="#9C42E3"/>
<stop offset="1" stop-color="#C339E5"/>
</linearGradient>
<linearGradient id="paint3_linear_7263_2147" x1="9.72813" y1="12.4929" x2="12.824" y2="12.2666" gradientUnits="userSpaceOnUse">
<stop stop-color="#6B4DE0"/>
<stop offset="0.544792" stop-color="#9C42E3"/>
<stop offset="1" stop-color="#C339E5"/>
</linearGradient>
</defs>
</svg>
