<svg width="18" height="18" viewBox="0 0 18 18" fill="none" xmlns="http://www.w3.org/2000/svg">
<path d="M6.81757 6.74966C7.18164 5.71469 8.2391 5.09321 9.32045 5.27869C10.4018 5.46417 11.1917 6.40252 11.1901 7.49966C11.1901 8.99966 8.94007 9.74966 8.94007 9.74966" stroke="url(#paint0_linear_7263_2411)" stroke-width="1.5" stroke-linecap="round" stroke-linejoin="round"/>
<path fill-rule="evenodd" clip-rule="evenodd" d="M9 16.5C13.1421 16.5 16.5 13.1421 16.5 9C16.5 4.85786 13.1421 1.5 9 1.5C4.85786 1.5 1.5 4.85786 1.5 9C1.5 13.1421 4.85786 16.5 9 16.5Z" stroke="url(#paint1_linear_7263_2411)" stroke-width="1.5" stroke-linecap="round" stroke-linejoin="round"/>
<ellipse cx="9" cy="12.75" rx="0.75" ry="0.749999" fill="url(#paint2_linear_7263_2411)"/>
<defs>
<linearGradient id="paint0_linear_7263_2411" x1="6.34277" y1="9.74966" x2="11.7694" y2="9.36465" gradientUnits="userSpaceOnUse">
<stop stop-color="#6B4DE0"/>
<stop offset="0.544792" stop-color="#9C42E3"/>
<stop offset="1" stop-color="#C339E5"/>
</linearGradient>
<linearGradient id="paint1_linear_7263_2411" x1="-0.128787" y1="16.5" x2="18.4816" y2="15.1401" gradientUnits="userSpaceOnUse">
<stop stop-color="#6B4DE0"/>
<stop offset="0.544792" stop-color="#9C42E3"/>
<stop offset="1" stop-color="#C339E5"/>
</linearGradient>
<linearGradient id="paint2_linear_7263_2411" x1="8.08712" y1="13.5" x2="9.94816" y2="13.364" gradientUnits="userSpaceOnUse">
<stop stop-color="#6B4DE0"/>
<stop offset="0.544792" stop-color="#9C42E3"/>
<stop offset="1" stop-color="#C339E5"/>
</linearGradient>
</defs>
</svg>
