<svg width="21" height="20" viewBox="0 0 21 20" fill="none" xmlns="http://www.w3.org/2000/svg">
<path d="M14.1667 17.5V15.8333C14.1667 13.9924 12.6743 12.5 10.8333 12.5H4.16668C2.32573 12.5 0.833344 13.9924 0.833344 15.8333V17.5" stroke="url(#paint0_linear_7263_5326)" stroke-width="1.5" stroke-linecap="round" stroke-linejoin="round"/>
<path fill-rule="evenodd" clip-rule="evenodd" d="M7.49999 9.16667C9.34094 9.16667 10.8333 7.67428 10.8333 5.83333C10.8333 3.99238 9.34094 2.5 7.49999 2.5C5.65904 2.5 4.16666 3.99238 4.16666 5.83333C4.16666 7.67428 5.65904 9.16667 7.49999 9.16667Z" stroke="url(#paint1_linear_7263_5326)" stroke-width="1.5" stroke-linecap="round" stroke-linejoin="round"/>
<path d="M19.1667 17.5001V15.8334C19.1655 14.3143 18.1375 12.9882 16.6667 12.6084" stroke="url(#paint2_linear_7263_5326)" stroke-width="2" stroke-linecap="round" stroke-linejoin="round"/>
<path d="M13.3333 2.6084C14.8083 2.98604 15.8399 4.31506 15.8399 5.83757C15.8399 7.36007 14.8083 8.68909 13.3333 9.06673" stroke="url(#paint3_linear_7263_5326)" stroke-width="2" stroke-linecap="round" stroke-linejoin="round"/>
<defs>
<linearGradient id="paint0_linear_7263_5326" x1="-0.614468" y1="17.5" x2="15.408" y2="14.3778" gradientUnits="userSpaceOnUse">
<stop stop-color="#6B4DE0"/>
<stop offset="0.544792" stop-color="#9C42E3"/>
<stop offset="1" stop-color="#C339E5"/>
</linearGradient>
<linearGradient id="paint1_linear_7263_5326" x1="3.44275" y1="9.16667" x2="11.714" y2="8.56225" gradientUnits="userSpaceOnUse">
<stop stop-color="#6B4DE0"/>
<stop offset="0.544792" stop-color="#9C42E3"/>
<stop offset="1" stop-color="#C339E5"/>
</linearGradient>
<linearGradient id="paint2_linear_7263_5326" x1="16.3952" y1="17.5001" x2="19.5091" y2="17.3838" gradientUnits="userSpaceOnUse">
<stop stop-color="#6B4DE0"/>
<stop offset="0.544792" stop-color="#9C42E3"/>
<stop offset="1" stop-color="#C339E5"/>
</linearGradient>
<linearGradient id="paint3_linear_7263_5326" x1="13.0612" y1="9.06673" x2="16.1851" y2="8.97813" gradientUnits="userSpaceOnUse">
<stop stop-color="#6B4DE0"/>
<stop offset="0.544792" stop-color="#9C42E3"/>
<stop offset="1" stop-color="#C339E5"/>
</linearGradient>
</defs>
</svg>
