<svg width="112" height="32" viewBox="0 0 112 32" fill="none" xmlns="http://www.w3.org/2000/svg">
<path d="M110.442 28.3113C110.442 30.0166 109.031 31.3979 107.285 31.3979H3.97733C2.23261 31.3979 0.816406 30.0166 0.816406 28.3113V3.69616C0.816406 1.99164 2.23261 0.605469 3.97733 0.605469H107.284C109.031 0.605469 110.441 1.99164 110.441 3.69616L110.442 28.3113Z" fill="black"/>
<path d="M24.9409 15.8263C24.917 13.2479 27.1079 11.9935 27.2081 11.9351C25.9673 10.1727 24.0441 9.93186 23.3683 9.91266C21.7531 9.74706 20.1863 10.8543 19.3635 10.8543C18.5243 10.8543 17.2572 9.92866 15.8916 9.95586C14.1343 9.98226 12.4904 10.9735 11.5887 12.5127C9.72797 15.6511 11.1157 20.2631 12.8985 22.7999C13.7903 24.0423 14.8323 25.4295 16.1963 25.3807C17.5307 25.3271 18.0291 24.5519 19.6394 24.5519C21.2349 24.5519 21.703 25.3807 23.0941 25.3495C24.5262 25.3271 25.4278 24.1015 26.2884 22.8479C27.3189 21.4239 27.7328 20.0215 27.7492 19.9495C27.7156 19.9383 24.968 18.9167 24.9409 15.8263Z" fill="white"/>
<path d="M22.3131 8.24386C23.0308 7.36946 23.5219 6.17986 23.3856 4.97266C22.3468 5.01746 21.0477 5.67266 20.2996 6.52786C19.6378 7.28146 19.0465 8.51666 19.1993 9.67826C20.3662 9.76306 21.5642 9.10466 22.3131 8.24386Z" fill="white"/>
<path d="M40.4794 8.00696C40.4794 8.94856 40.1895 9.65736 39.6106 10.1334C39.0743 10.5726 38.3123 10.7926 37.3253 10.7926C36.8358 10.7926 36.417 10.7718 36.0664 10.7302V5.58536C36.5238 5.51336 37.0165 5.47656 37.5486 5.47656C38.4888 5.47656 39.1975 5.67576 39.6754 6.07416C40.2108 6.52456 40.4794 7.16856 40.4794 8.00696ZM39.572 8.03016C39.572 7.41976 39.4061 6.95176 39.0743 6.62536C38.7426 6.29976 38.2581 6.13656 37.6201 6.13656C37.3491 6.13656 37.1183 6.15416 36.927 6.19096V10.1022C37.0329 10.1182 37.2267 10.1254 37.5084 10.1254C38.1669 10.1254 38.6753 9.94696 39.0333 9.59016C39.3913 9.23336 39.572 8.71336 39.572 8.03016Z" fill="white"/>
<path d="M45.2913 8.82964C45.2913 9.40964 45.1213 9.88484 44.7814 10.2576C44.425 10.6408 43.9528 10.832 43.3632 10.832C42.795 10.832 42.3425 10.6488 42.005 10.2808C41.6683 9.91364 41.5 9.45044 41.5 8.89204C41.5 8.30804 41.6733 7.82884 42.0214 7.45684C42.3696 7.08484 42.8377 6.89844 43.4273 6.89844C43.9955 6.89844 44.4521 7.08164 44.7978 7.44884C45.1263 7.80564 45.2913 8.26644 45.2913 8.82964ZM44.3987 8.85684C44.3987 8.50884 44.3215 8.21044 44.168 7.96164C43.9873 7.66084 43.7303 7.51044 43.3961 7.51044C43.0504 7.51044 42.7876 7.66084 42.6069 7.96164C42.4526 8.21044 42.3762 8.51364 42.3762 8.87204C42.3762 9.22004 42.4534 9.51844 42.6069 9.76724C42.7933 10.068 43.0528 10.2184 43.3879 10.2184C43.7163 10.2184 43.9742 10.0656 44.1598 9.75924C44.3191 9.50564 44.3987 9.20484 44.3987 8.85684Z" fill="white"/>
<path d="M51.7414 6.97656L50.5301 10.7478H49.7418L49.2401 9.11016C49.1128 8.70136 49.0093 8.29496 48.9289 7.89176H48.9133C48.8385 8.30616 48.7351 8.71176 48.602 9.11016L48.0691 10.7478H47.2718L46.1328 6.97656H47.0172L47.4549 8.76936C47.5608 9.19336 47.6479 9.59736 47.7177 9.97976H47.7333C47.7973 9.66456 47.9032 9.26296 48.0527 8.77736L48.602 6.97736H49.3033L49.8297 8.73896C49.957 9.16856 50.0604 9.58216 50.1401 9.98056H50.1639C50.2222 9.59256 50.3101 9.17896 50.4267 8.73896L50.8964 6.97736H51.7414V6.97656Z" fill="white"/>
<path d="M56.2036 10.7488H55.343V8.58884C55.343 7.92324 55.0835 7.59044 54.5629 7.59044C54.3075 7.59044 54.1014 7.68164 53.9413 7.86484C53.7828 8.04804 53.7023 8.26404 53.7023 8.51124V10.748H52.8417V8.05524C52.8417 7.72404 52.8311 7.36484 52.8105 6.97604H53.5668L53.6071 7.56564H53.6309C53.7311 7.38244 53.8805 7.23124 54.0768 7.11044C54.31 6.96964 54.5711 6.89844 54.8569 6.89844C55.2182 6.89844 55.5187 7.01204 55.7577 7.24004C56.055 7.51924 56.2036 7.93604 56.2036 8.48964V10.7488Z" fill="white"/>
<path d="M58.5765 10.7477H57.7168V5.24609H58.5765V10.7477Z" fill="white"/>
<path d="M63.6429 8.82964C63.6429 9.40964 63.4729 9.88484 63.1329 10.2576C62.7765 10.6408 62.3036 10.832 61.7148 10.832C61.1457 10.832 60.6933 10.6488 60.3566 10.2808C60.0199 9.91364 59.8516 9.45044 59.8516 8.89204C59.8516 8.30804 60.0248 7.82884 60.373 7.45684C60.7212 7.08484 61.1892 6.89844 61.778 6.89844C62.3471 6.89844 62.8028 7.08164 63.1493 7.44884C63.4778 7.80564 63.6429 8.26644 63.6429 8.82964ZM62.7494 8.85684C62.7494 8.50884 62.6723 8.21044 62.5187 7.96164C62.3389 7.66084 62.081 7.51044 61.7476 7.51044C61.4011 7.51044 61.1383 7.66084 60.9585 7.96164C60.8041 8.21044 60.7277 8.51364 60.7277 8.87204C60.7277 9.22004 60.8049 9.51844 60.9585 9.76724C61.1449 10.068 61.4044 10.2184 61.7394 10.2184C62.0679 10.2184 62.3249 10.0656 62.5105 9.75924C62.6706 9.50564 62.7494 9.20484 62.7494 8.85684Z" fill="white"/>
<path d="M67.8068 10.7464H67.0341L66.97 10.312H66.9462C66.6818 10.6584 66.3049 10.832 65.8155 10.832C65.4501 10.832 65.1545 10.7176 64.9319 10.4904C64.7299 10.284 64.6289 10.0272 64.6289 9.72244C64.6289 9.26164 64.826 8.91044 65.2226 8.66724C65.6184 8.42404 66.1752 8.30484 66.892 8.31044V8.24004C66.892 7.74324 66.6243 7.49524 66.0881 7.49524C65.7063 7.49524 65.3696 7.58884 65.0789 7.77444L64.904 7.22404C65.2637 7.00724 65.7079 6.89844 66.2318 6.89844C67.2435 6.89844 67.751 7.41844 67.751 8.45844V9.84724C67.751 10.224 67.7699 10.524 67.8068 10.7464ZM66.9134 9.45044V8.86884C65.9641 8.85284 65.4895 9.10644 65.4895 9.62884C65.4895 9.82564 65.5437 9.97284 65.6545 10.0712C65.7654 10.1696 65.9066 10.2184 66.075 10.2184C66.2638 10.2184 66.4404 10.16 66.6013 10.044C66.7631 9.92724 66.8625 9.77924 66.8994 9.59764C66.9085 9.55684 66.9134 9.50724 66.9134 9.45044Z" fill="white"/>
<path d="M72.6972 10.7477H71.9335L71.8933 10.1421H71.8695C71.6256 10.6029 71.2101 10.8333 70.6262 10.8333C70.1598 10.8333 69.7714 10.6549 69.4634 10.2981C69.1555 9.94129 69.002 9.47809 69.002 8.90929C69.002 8.29889 69.1686 7.80449 69.5037 7.42689C69.828 7.07489 70.2255 6.89889 70.6985 6.89889C71.2183 6.89889 71.582 7.06929 71.789 7.41089H71.8054V5.24609H72.6668V9.73169C72.6668 10.0989 72.6767 10.4373 72.6972 10.7477ZM71.8054 9.15729V8.52849C71.8054 8.41969 71.7972 8.33169 71.7816 8.26449C71.7331 8.06289 71.6289 7.89329 71.4704 7.75649C71.3102 7.61969 71.1173 7.55089 70.8947 7.55089C70.5737 7.55089 70.3224 7.67489 70.1376 7.92369C69.9545 8.17249 69.8617 8.49009 69.8617 8.87809C69.8617 9.25089 69.9496 9.55329 70.1261 9.78609C70.3125 10.0341 70.5638 10.1581 70.8783 10.1581C71.1608 10.1581 71.3866 10.0549 71.5582 9.84769C71.7241 9.65649 71.8054 9.42609 71.8054 9.15729Z" fill="white"/>
<path d="M80.0569 8.82964C80.0569 9.40964 79.887 9.88484 79.547 10.2576C79.1906 10.6408 78.7193 10.832 78.1288 10.832C77.5614 10.832 77.109 10.6488 76.7706 10.2808C76.434 9.91364 76.2656 9.45044 76.2656 8.89204C76.2656 8.30804 76.4389 7.82884 76.7871 7.45684C77.1352 7.08484 77.6033 6.89844 78.1937 6.89844C78.7611 6.89844 79.2185 7.08164 79.5634 7.44884C79.8919 7.80564 80.0569 8.26644 80.0569 8.82964ZM79.1652 8.85684C79.1652 8.50884 79.088 8.21044 78.9344 7.96164C78.7529 7.66084 78.4967 7.51044 78.1617 7.51044C77.8168 7.51044 77.554 7.66084 77.3726 7.96164C77.2182 8.21044 77.1418 8.51364 77.1418 8.87204C77.1418 9.22004 77.219 9.51844 77.3726 9.76724C77.559 10.068 77.8184 10.2184 78.1535 10.2184C78.4819 10.2184 78.7406 10.0656 78.9262 9.75924C79.0847 9.50564 79.1652 9.20484 79.1652 8.85684Z" fill="white"/>
<path d="M84.6852 10.7488H83.8254V8.58884C83.8254 7.92324 83.5659 7.59044 83.0445 7.59044C82.7891 7.59044 82.583 7.68164 82.4237 7.86484C82.2644 8.04804 82.1847 8.26404 82.1847 8.51124V10.748H81.3234V8.05524C81.3234 7.72404 81.3135 7.36484 81.293 6.97604H82.0484L82.0887 7.56564H82.1125C82.2135 7.38244 82.3629 7.23124 82.5584 7.11044C82.7924 6.96964 83.0527 6.89844 83.3393 6.89844C83.6998 6.89844 84.0003 7.01204 84.2393 7.24004C84.5374 7.51924 84.6852 7.93604 84.6852 8.48964V10.7488Z" fill="white"/>
<path d="M90.4767 7.60626H89.5291V9.43826C89.5291 9.90386 89.6974 10.1367 90.0308 10.1367C90.1852 10.1367 90.3133 10.1239 90.4143 10.0975L90.4365 10.7335C90.2665 10.7959 90.0431 10.8271 89.768 10.8271C89.4281 10.8271 89.1637 10.7263 88.9723 10.5247C88.7802 10.3231 88.6849 9.98386 88.6849 9.50786V7.60626H88.1191V6.97826H88.6849V6.28706L89.5283 6.03906V6.97746H90.4759V7.60626H90.4767Z" fill="white"/>
<path d="M95.0318 10.7477H94.1704V8.60369C94.1704 7.92769 93.9109 7.58929 93.3911 7.58929C92.992 7.58929 92.7194 7.78529 92.5699 8.17729C92.5445 8.25969 92.5297 8.36049 92.5297 8.47889V10.7469H91.6699V5.24609H92.5297V7.51889H92.5461C92.8171 7.10529 93.2055 6.89889 93.7089 6.89889C94.0653 6.89889 94.36 7.01249 94.5941 7.24049C94.8856 7.52449 95.0318 7.94689 95.0318 8.50529V10.7477Z" fill="white"/>
<path d="M99.7325 8.68182C99.7325 8.83222 99.721 8.95862 99.7005 9.06182H97.1196C97.1311 9.43462 97.2542 9.71862 97.4932 9.91542C97.7116 10.0914 97.9933 10.1794 98.3382 10.1794C98.72 10.1794 99.0682 10.1202 99.3819 10.001L99.5165 10.5834C99.1495 10.7386 98.7176 10.8162 98.2175 10.8162C97.618 10.8162 97.1458 10.6442 96.8042 10.3002C96.461 9.95622 96.291 9.49462 96.291 8.91542C96.291 8.34662 96.4495 7.87302 96.7689 7.49542C97.1023 7.09222 97.5531 6.89062 98.1222 6.89062C98.679 6.89062 99.1019 7.09222 99.3876 7.49542C99.6184 7.81542 99.7325 8.21142 99.7325 8.68182ZM98.9113 8.46502C98.9179 8.21622 98.8613 8.00182 98.7447 7.82102C98.5952 7.58822 98.3677 7.47142 98.0598 7.47142C97.779 7.47142 97.5499 7.58502 97.375 7.81302C97.2321 7.99462 97.1475 8.21142 97.1196 8.46502H98.9113Z" fill="white"/>
<path d="M44.2531 25.205H42.3883L41.3667 22.0778H37.816L36.8429 25.205H35.0273L38.5452 14.5586H40.718L44.2531 25.205ZM41.0588 20.7658L40.135 17.9858C40.0373 17.7018 39.8541 17.033 39.584 15.9802H39.5511C39.4436 16.433 39.2703 17.1018 39.0322 17.9858L38.1248 20.7658H41.0588Z" fill="white"/>
<path d="M53.2993 21.2727C53.2993 22.5783 52.9372 23.6103 52.2129 24.3679C51.5642 25.0423 50.7586 25.3791 49.797 25.3791C48.7591 25.3791 48.0135 25.0159 47.5594 24.2895H47.5265V28.3335H45.7758V20.0559C45.7758 19.2351 45.7536 18.3927 45.7109 17.5287H47.2506L47.3483 18.7455H47.3812C47.965 17.8287 48.8511 17.3711 50.0401 17.3711C50.9697 17.3711 51.7457 17.7287 52.3665 18.4447C52.9889 19.1615 53.2993 20.1039 53.2993 21.2727ZM51.5157 21.3351C51.5157 20.5879 51.3433 19.9719 50.9968 19.4871C50.6182 18.9815 50.1099 18.7287 49.4727 18.7287C49.0408 18.7287 48.6482 18.8695 48.2976 19.1471C47.9461 19.4271 47.7162 19.7927 47.6086 20.2455C47.5544 20.4567 47.5274 20.6295 47.5274 20.7655V22.0455C47.5274 22.6039 47.7031 23.0751 48.0545 23.4599C48.406 23.8447 48.8626 24.0367 49.4242 24.0367C50.0836 24.0367 50.5969 23.7887 50.9639 23.2943C51.3318 22.7991 51.5157 22.1463 51.5157 21.3351Z" fill="white"/>
<path d="M62.3629 21.2727C62.3629 22.5783 62.0008 23.6103 61.2757 24.3679C60.6278 25.0423 59.8223 25.3791 58.8607 25.3791C57.8227 25.3791 57.0771 25.0159 56.6238 24.2895H56.591V28.3335H54.8403V20.0559C54.8403 19.2351 54.8181 18.3927 54.7754 17.5287H56.3151L56.4128 18.7455H56.4456C57.0287 17.8287 57.9147 17.3711 59.1046 17.3711C60.0333 17.3711 60.8093 17.7287 61.4318 18.4447C62.0517 19.1615 62.3629 20.1039 62.3629 21.2727ZM60.5794 21.3351C60.5794 20.5879 60.4061 19.9719 60.0596 19.4871C59.681 18.9815 59.1744 18.7287 58.5363 18.7287C58.1036 18.7287 57.7119 18.8695 57.3604 19.1471C57.009 19.4271 56.7799 19.7927 56.6723 20.2455C56.6189 20.4567 56.591 20.6295 56.591 20.7655V22.0455C56.591 22.6039 56.7667 23.0751 57.1165 23.4599C57.468 23.8439 57.9246 24.0367 58.4879 24.0367C59.1473 24.0367 59.6605 23.7887 60.0276 23.2943C60.3954 22.7991 60.5794 22.1463 60.5794 21.3351Z" fill="white"/>
<path d="M72.4963 22.2191C72.4963 23.1247 72.1736 23.8615 71.5257 24.4303C70.8138 25.0519 69.8226 25.3623 68.549 25.3623C67.3731 25.3623 66.4304 25.1415 65.7168 24.6991L66.1225 23.2775C66.8911 23.7303 67.7344 23.9575 68.6533 23.9575C69.3127 23.9575 69.8259 23.8119 70.1946 23.5223C70.5617 23.2327 70.7448 22.8439 70.7448 22.3591C70.7448 21.9271 70.5937 21.5631 70.2907 21.2679C69.9893 20.9727 69.4859 20.6983 68.783 20.4447C66.8697 19.7495 65.9139 18.7311 65.9139 17.3919C65.9139 16.5167 66.2489 15.7991 66.9198 15.2407C67.5882 14.6815 68.48 14.4023 69.5952 14.4023C70.5896 14.4023 71.4157 14.5711 72.0751 14.9079L71.6374 16.2983C71.0215 15.9719 70.3252 15.8087 69.5459 15.8087C68.93 15.8087 68.4488 15.9567 68.1039 16.2511C67.8124 16.5143 67.6662 16.8351 67.6662 17.2151C67.6662 17.6359 67.8329 17.9839 68.168 18.2575C68.4595 18.5103 68.9891 18.7839 69.7578 19.0791C70.698 19.4479 71.3886 19.8791 71.8328 20.3735C72.2754 20.8663 72.4963 21.4831 72.4963 22.2191Z" fill="white"/>
<path d="M78.2852 18.8061H76.3555V22.5333C76.3555 23.4813 76.6954 23.9549 77.377 23.9549C77.6899 23.9549 77.9493 23.9285 78.1546 23.8757L78.2031 25.1709C77.8582 25.2965 77.4041 25.3597 76.8416 25.3597C76.1502 25.3597 75.6099 25.1541 75.2198 24.7437C74.8314 24.3325 74.636 23.6429 74.636 22.6741V18.8045H73.4863V17.5245H74.636V16.1189L76.3555 15.6133V17.5245H78.2852V18.8061Z" fill="white"/>
<path d="M86.9916 21.3031C86.9916 22.4831 86.645 23.4519 85.9536 24.2095C85.2285 24.9895 84.2661 25.3783 83.0664 25.3783C81.9102 25.3783 80.9897 25.0047 80.3032 24.2575C79.6167 23.5103 79.2734 22.5671 79.2734 21.4303C79.2734 20.2407 79.6265 19.2663 80.3352 18.5087C81.0422 17.7503 81.9964 17.3711 83.1961 17.3711C84.3523 17.3711 85.2827 17.7447 85.9848 18.4927C86.6565 19.2183 86.9916 20.1551 86.9916 21.3031ZM85.1751 21.3583C85.1751 20.6503 85.0199 20.0431 84.7054 19.5367C84.3384 18.9239 83.8136 18.6183 83.1337 18.6183C82.43 18.6183 81.8954 18.9247 81.5284 19.5367C81.2138 20.0439 81.0586 20.6607 81.0586 21.3903C81.0586 22.0983 81.2138 22.7055 81.5284 23.2111C81.9069 23.8239 82.4357 24.1295 83.1181 24.1295C83.7866 24.1295 84.3113 23.8175 84.6898 23.1951C85.0125 22.6791 85.1751 22.0655 85.1751 21.3583Z" fill="white"/>
<path d="M92.6827 19.0287C92.5094 18.9975 92.3246 18.9815 92.1308 18.9815C91.515 18.9815 91.0387 19.2079 90.7037 19.6615C90.4121 20.0615 90.266 20.5671 90.266 21.1775V25.2055H88.5161L88.5325 19.9463C88.5325 19.0615 88.5103 18.2559 88.4668 17.5295H89.9917L90.0558 18.9983H90.1042C90.289 18.4935 90.5805 18.0871 90.9796 17.7823C91.3696 17.5079 91.7909 17.3711 92.245 17.3711C92.4068 17.3711 92.5529 17.3823 92.6827 17.4023V19.0287Z" fill="white"/>
<path d="M100.513 21.0027C100.513 21.3083 100.492 21.5659 100.449 21.7763H95.1964C95.217 22.5347 95.4707 23.1147 95.9585 23.5147C96.4011 23.8723 96.9734 24.0515 97.6764 24.0515C98.454 24.0515 99.1635 23.9307 99.8015 23.6883L100.076 24.8723C99.3302 25.1891 98.4499 25.3467 97.4341 25.3467C96.2122 25.3467 95.2531 24.9963 94.5551 24.2963C93.8588 23.5963 93.5098 22.6563 93.5098 21.4771C93.5098 20.3195 93.8341 19.3555 94.4837 18.5867C95.1636 17.7659 96.0825 17.3555 97.2387 17.3555C98.3743 17.3555 99.2341 17.7659 99.8179 18.5867C100.28 19.2387 100.513 20.0451 100.513 21.0027ZM98.8432 20.5603C98.8547 20.0547 98.7406 19.6179 98.5033 19.2491C98.2003 18.7747 97.7347 18.5379 97.1081 18.5379C96.5358 18.5379 96.0702 18.7691 95.7146 19.2331C95.4231 19.6019 95.2498 20.0443 95.1964 20.5595H98.8432V20.5603Z" fill="white"/>
</svg>
