<svg width="21" height="20" viewBox="0 0 21 20" fill="none" xmlns="http://www.w3.org/2000/svg">
<circle cx="10.0588" cy="10" r="10" fill="#C6CEF7"/>
<g clip-path="url(#clip0_6866_6737)">
<path d="M7.09226 16.5C13.1285 16.5 16.431 11.4978 16.431 7.16124C16.431 7.02062 16.4279 6.87686 16.4216 6.73624C17.0641 6.27164 17.6185 5.69617 18.0588 5.03687C17.4605 5.30307 16.8253 5.47692 16.1748 5.55249C16.8597 5.14194 17.3725 4.49698 17.6182 3.73718C16.9739 4.11904 16.2692 4.38841 15.5344 4.53374C15.0394 4.00771 14.3848 3.65941 13.6719 3.5427C12.9591 3.42599 12.2276 3.54737 11.5907 3.88806C10.9537 4.22876 10.4467 4.7698 10.1481 5.42754C9.84942 6.08528 9.77578 6.82308 9.93851 7.52687C8.63382 7.46139 7.35745 7.12247 6.19214 6.53207C5.02684 5.94166 3.99862 5.11296 3.17414 4.09968C2.75509 4.82216 2.62686 5.6771 2.81551 6.49073C3.00416 7.30436 3.49553 8.01563 4.18976 8.47999C3.66857 8.46344 3.15881 8.32312 2.70257 8.07061V8.11124C2.70211 8.86943 2.96422 9.60439 3.44436 10.1912C3.9245 10.778 4.59304 11.1804 5.33632 11.33C4.85353 11.4621 4.34681 11.4813 3.85539 11.3862C4.06513 12.0383 4.4732 12.6086 5.02267 13.0176C5.57213 13.4265 6.23557 13.6537 6.92039 13.6675C5.75777 14.5807 4.32161 15.0761 2.8432 15.0737C2.58101 15.0733 2.31909 15.0573 2.05882 15.0256C3.56073 15.9892 5.30784 16.5009 7.09226 16.5Z" fill="#4D1C8C"/>
</g>
<defs>
<clipPath id="clip0_6866_6737">
<rect width="16" height="16" fill="white" transform="translate(2.05882 2)"/>
</clipPath>
</defs>
</svg>
